<?xml version="1.0" standalone="no"?>
<!DOCTYPE svg PUBLIC "-//W3C//DTD SVG 1.1//EN" "http://www.w3.org/Graphics/SVG/1.1/DTD/svg11.dtd" >
<svg xmlns="http://www.w3.org/2000/svg">
<metadata>
Created by FontForge 20120731 at Fri Jul 15 10:39:14 2016
 By admin
</metadata>
<defs>
<font id="iconfont" horiz-adv-x="1024" >
  <font-face 
    font-family="iconfont"
    font-weight="500"
    font-stretch="normal"
    units-per-em="1024"
    panose-1="2 0 6 3 0 0 0 0 0 0"
    ascent="896"
    descent="-128"
    x-height="792"
    bbox="34 -51.3889 956 819.211"
    underline-thickness="50"
    underline-position="-100"
    unicode-range="U+0078-E621"
  />
<missing-glyph horiz-adv-x="374" 
d="M34 0v682h272v-682h-272zM68 34h204v614h-204v-614z" />
    <glyph glyph-name=".notdef" horiz-adv-x="374" 
d="M34 0v682h272v-682h-272zM68 34h204v614h-204v-614z" />
    <glyph glyph-name=".null" horiz-adv-x="0" 
 />
    <glyph glyph-name="nonmarkingreturn" horiz-adv-x="341" 
 />
    <glyph glyph-name="x" unicode="x" horiz-adv-x="1001" 
d="M281 543q-27 -1 -53 -1h-83q-18 0 -36.5 -6t-32.5 -18.5t-23 -32t-9 -45.5v-76h912v41q0 16 -0.5 30t-0.5 18q0 13 -5 29t-17 29.5t-31.5 22.5t-49.5 9h-133v-97h-438v97zM955 310v-52q0 -23 0.5 -52t0.5 -58t-10.5 -47.5t-26 -30t-33 -16t-31.5 -4.5q-14 -1 -29.5 -0.5
t-29.5 0.5h-32l-45 128h-439l-44 -128h-29h-34q-20 0 -45 1q-25 0 -41 9.5t-25.5 23t-13.5 29.5t-4 30v167h911zM163 247q-12 0 -21 -8.5t-9 -21.5t9 -21.5t21 -8.5q13 0 22 8.5t9 21.5t-9 21.5t-22 8.5zM316 123q-8 -26 -14 -48q-5 -19 -10.5 -37t-7.5 -25t-3 -15t1 -14.5
t9.5 -10.5t21.5 -4h37h67h81h80h64h36q23 0 34 12t2 38q-5 13 -9.5 30.5t-9.5 34.5q-5 19 -11 39h-368zM336 498v228q0 11 2.5 23t10 21.5t20.5 15.5t34 6h188q31 0 51.5 -14.5t20.5 -52.5v-227h-327z" />
    <glyph glyph-name="uniE600" unicode="&#xe600;" 
d="M512 819q-89 0 -169.5 -34.5t-138.5 -92.5t-92.5 -138.5t-34.5 -169.5t34.5 -169.5t92.5 -138.5t138.5 -92.5t169.5 -34.5t169.5 34.5t138.5 92.5t92.5 138.5t34.5 169.5t-34.5 169.5t-92.5 138.5t-138.5 92.5t-169.5 34.5zM828 597q57 -84 64 -186h-218q-2 80 -13 147
q88 13 167 39zM790 644q-67 -21 -140 -32q-17 75 -45 141q108 -27 185 -109zM404 411q3 76 14 141q49 -5 94 -5q46 0 94 5q11 -66 14 -141h-216zM620 357q-3 -76 -14 -141q-49 5 -94 5q-46 0 -94 -5q-11 65 -14 141h216zM486 764q18 1 26 1t26 -1q35 -72 56 -159
q-42 -4 -82 -4q-38 0 -82 4q21 87 56 159zM419 753q-28 -65 -45 -141q-73 11 -140 32q77 82 185 109zM196 597q79 -26 168 -39q-12 -67 -14 -147h-218q7 102 64 186zM196 171q-57 84 -64 186h218q2 -80 14 -147q-90 -13 -168 -39zM234 124q67 21 140 32q17 -75 45 -141
q-108 27 -185 109zM538 4q-18 -1 -26 -1t-26 1q-35 72 -56 159q43 4 82 4t82 -4q-21 -87 -56 -159zM605 15q28 66 45 141q73 -11 140 -32q-77 -82 -185 -109zM828 171q-79 26 -168 39q12 67 14 147h218q-7 -102 -64 -186z" />
    <glyph glyph-name="uniE601" unicode="&#xe601;" 
d="M947 582l-38 39l-397 -397l-397 397l-38 -39l435 -435z" />
    <glyph glyph-name="uniE602" unicode="&#xe602;" 
d="M512 819q-89 0 -169.5 -34.5t-138.5 -92.5t-92.5 -138.5t-34.5 -169.5t34.5 -169.5t92.5 -138.5t138.5 -92.5t169.5 -34.5t169.5 34.5t138.5 92.5t92.5 138.5t34.5 169.5t-34.5 169.5t-92.5 138.5t-138.5 92.5t-169.5 34.5zM730 330h-164v-164h-108v164h-164v108h164v164
h108v-164h164v-108z" />
    <glyph glyph-name="uniE603" unicode="&#xe603;" 
d="M947 186l-38 -39l-397 397l-397 -397l-38 39l435 435z" />
    <glyph glyph-name="uniE604" unicode="&#xe604;" 
d="M710 -51l39 38l-397 397l397 397l-39 38l-435 -435z" />
    <glyph glyph-name="uniE605" unicode="&#xe605;" 
d="M314 -51l-39 38l397 397l-397 397l39 38l435 -435z" />
    <glyph glyph-name="uniE606" unicode="&#xe606;" 
d="M408 49l-331 332l130 130l201 -200l409 408l130 -131z" />
    <glyph glyph-name="uniE607" unicode="&#xe607;" 
d="M512 819q-89 0 -169.5 -34.5t-138.5 -92.5t-92.5 -138.5t-34.5 -169.5t34.5 -169.5t92.5 -138.5t138.5 -92.5t169.5 -34.5t169.5 34.5t138.5 92.5t92.5 138.5t34.5 169.5t-34.5 169.5t-92.5 138.5t-138.5 92.5t-169.5 34.5zM704 269l-77 -77l-115 115l-115 -115l-77 77
l115 115l-115 115l77 77l115 -115l115 115l77 -77l-115 -115z" />
    <glyph glyph-name="uniE608" unicode="&#xe608;" 
d="M77 819h870v-150h-870v150zM77 -51h870v648h-870v-648zM700 476h145v-146h-145v146zM700 208h145v-145h-145v145zM440 476h145v-146h-145v146zM440 208h145v-145h-145v145zM180 476h145v-146h-145v146zM180 208h145v-145h-145v145z" />
    <glyph glyph-name="uniE609" unicode="&#xe609;" 
d="M681 819h-532v-870h726v686zM742 110h-460v73h460v-73zM742 299h-460v72h460v-72zM602 553v211l222 -211h-222z" />
    <glyph glyph-name="uniE60A" unicode="&#xe60a;" 
d="M850 752v2h-13l-399 65v-65h-205v-177h97v89h108v-557h-108v87h-97v-175h205v-72l437 74v725zM301 522l-152 -139l152 -139l51 46l-66 60h103v66h-103l66 60z" />
    <glyph glyph-name="uniE60B" unicode="&#xe60b;" 
d="M77 724h870v-60h-870v60zM77 414h870v-60h-870v60zM77 104h870v-60h-870v60z" />
    <glyph glyph-name="uniE60C" unicode="&#xe60c;" 
d="M887 704q-77 78 -159 78q-85 0 -158 -78l-58 -60l-58 60q-74 79 -159 79q-82 0 -158 -79q-63 -67 -60.5 -164t66.5 -164l369 -391l369 391q64 67 66.5 164.5t-60.5 163.5zM828 426l-316 -335l-317 334q-44 48 -46 116.5t41 112.5q54 57 105 57q53 0 107 -57l58 -60
l52 -54l52 54l58 60q53 56 106 56q52 0 107 -56q41 -43 39.5 -112.5t-46.5 -115.5z" />
    <glyph glyph-name="uniE60D" unicode="&#xe60d;" 
d="M77 819h870v-196h-870v196zM77 482h870v-196h-870v196zM77 145h870v-196h-870v196z" />
    <glyph glyph-name="uniE60E" unicode="&#xe60e;" 
d="M947 261v246h-870v-246h870z" />
    <glyph glyph-name="uniE60F" unicode="&#xe60f;" 
d="M512 819q-89 0 -169.5 -34.5t-138.5 -92.5t-92.5 -138.5t-34.5 -169.5t34.5 -169.5t92.5 -138.5t138.5 -92.5t169.5 -34.5t169.5 34.5t138.5 92.5t92.5 138.5t34.5 169.5t-34.5 169.5t-92.5 138.5t-138.5 92.5t-169.5 34.5zM294 330v108h436v-108h-436z" />
    <glyph glyph-name="uniE610" unicode="&#xe610;" 
d="M459 819h106v-538h-106v538zM861 642q-41 55 -95 94l-29 20l-65 -91l28 -20q41 -29 71 -70q64 -86 64 -192q0 -133 -94.5 -227.5t-228 -94.5t-228 94.5t-94.5 227.5q0 107 63 192q30 41 71 70l28 20l-65 91l-28 -20q-55 -39 -96 -94q-86 -115 -86 -259q0 -88 35 -169
q33 -78 93 -138t138 -93q80 -34 169 -34t169 34q78 33 138 93t93 138q35 81 35 169q0 144 -86 259z" />
    <glyph glyph-name="uniE611" unicode="&#xe611;" 
d="M386 506.5q0 -16.5 12 -28.5t29.5 -12t30 12t12.5 28q0 17 -12.5 29t-30 12t-29.5 -12t-12 -28.5zM554 506q0 -16 12.5 -28t30 -12t29.5 12t12 28.5t-12 28.5t-29.5 12t-30 -12t-12.5 -29zM834 571q1 -20 1 -24q0 -23 -4 -51q60 -68 60 -153q0 -67 -38 -124t-102 -92v-97
l-96 62q-37 -7 -73 -7q-50 0 -84.5 13t-79.5 43q-23 -2 -46 -2q-9 0 -34 2q55 -52 111.5 -78t132.5 -26q33 0 68 6l157 -94v154q65 43 102.5 107t37.5 137q0 65 -30 123t-83 101zM347 201q45 -7 95 -7q74 0 137.5 25t107 68.5t68 101t24.5 121.5q0 83 -49 155t-127 113
t-161 41q-100 0 -184 -41t-132.5 -112.5t-48.5 -155.5q0 -151 112 -244v-154zM133 506q0 108 89 183.5t220 75.5q69 0 134 -34.5t106 -94.5t41 -130q0 -109 -78 -183.5t-203 -74.5q-64 0 -101 8l-96 -62v96q-112 88 -112 216zM217 506.5q0 -16.5 12.5 -28.5t30 -12t29.5 12
t12 28q0 17 -12 29t-29.5 12t-30 -12t-12.5 -28.5z" />
    <glyph glyph-name="uniE612" unicode="&#xe612;" 
d="M512 683q11 0 19 8t8 20v81q0 11 -8 19t-19 8t-19 -8t-8 -19v-81q0 -12 8 -20t19 -8zM762 172q-8 8 -19 8t-19 -8t-8 -19t8 -19l57 -58q8 -8 19.5 -8t19.5 8t8 19.5t-8 19.5zM774 608l57 57q8 8 8 19t-8 19t-19 8t-19 -8l-57 -57q-8 -8 -8 -19t8 -19t19 -8t19 8zM185 411
h-81q-11 0 -19 -8t-8 -19t8 -19t19 -8h81q12 0 20 8t8 19t-8 19t-20 8zM262 596q8 -8 19 -8t19 8t8 19t-8 19l-57 58q-8 8 -19.5 8t-19.5 -8t-8 -19.5t8 -19.5zM920 411h-81q-12 0 -20 -8t-8 -19t8 -19t20 -8h81q11 0 19 8t8 19t-8 19t-19 8zM512 629q-102 0 -173.5 -71.5
t-71.5 -173.5t71.5 -173.5t173.5 -71.5t173.5 71.5t71.5 173.5t-71.5 173.5t-173.5 71.5zM512 194q-79 0 -134.5 55.5t-55.5 134.5t55.5 134.5t134.5 55.5t134.5 -55.5t55.5 -134.5t-55.5 -134.5t-134.5 -55.5zM512 85q-11 0 -19 -8t-8 -20v-81q0 -11 8 -19t19 -8t19 8t8 19
v81q0 12 -8 20t-19 8zM278 188l-57 -57q-8 -8 -8 -19t8 -19t19 -8t19 8l57 57q8 8 8 19.5t-8 19t-19 7.5t-19 -8z" />
    <glyph glyph-name="uniE613" unicode="&#xe613;" 
d="M512 275q-11 0 -19 -8t-8 -19v-109q0 -11 8 -19t19 -8t19 8t8 19v109q0 11 -8 19t-19 8zM512 493q-90 0 -163 -55v164q0 67 47.5 115t115.5 48t115.5 -48t47.5 -115h55q0 90 -64 153.5t-154 63.5t-154 -63.5t-64 -153.5v-219q-54 -72 -54 -162q0 -113 79.5 -192.5
t192.5 -79.5t192.5 79.5t79.5 192t-79.5 192.5t-192.5 80zM512 3q-90 0 -154 64t-64 154t64 153.5t154 63.5t154 -63.5t64 -153.5t-64 -154t-154 -64z" />
    <glyph glyph-name="uniE614" unicode="&#xe614;" 
d="M512 683q-79 0 -134.5 -55.5t-55.5 -134.5t55.5 -135t134.5 -56t134.5 56t55.5 135t-55.5 134.5t-134.5 55.5zM512 357q-56 0 -96 40t-40 96t40 96t96 40t96 -40t40 -96t-40 -96t-96 -40zM812 345q34 69 34 145q0 89 -44.5 165t-121.5 120t-168 44t-168 -44t-121.5 -120
t-44.5 -165q0 -76 34 -145l-135 -232q86 -17 173 -35l116 -129l125 213q18 -1 21 -1t21 1l125 -213q58 64 116 129l173 35zM360 47q-42 40 -82 78l-111 32l78 135q72 -94 187 -122zM512 221q-113 0 -192.5 79.5t-79.5 192.5t79.5 192.5t192.5 79.5t192.5 -79.5t79.5 -192.5
t-79.5 -192.5t-192.5 -79.5zM746 125l-82 -78l-72 124q115 27 187 121l78 -135z" />
    <glyph glyph-name="uniE615" unicode="&#xe615;" 
d="M947 815v4h-4h-18q-26 0 -54 -2t-73.5 -10.5t-89 -23t-96 -42t-98 -64t-91.5 -93t-80 -124.5l-195 -8h-2l-69 -159l55 -56l173 49l105 -105l-44 -177l55 -55l160 69l8 196q61 31 112.5 71.5t87 81t63.5 87.5t44 87.5t27.5 84.5t16 73.5t6.5 60t1.5 39.5t-0.5 16zM436 24
l44 177l-157 156l-170 -48l38 87l166 2l29 5l13 27q38 76 91.5 135t105 92.5t110 56t98.5 30t78 10.5q-3 -39 -10.5 -79t-30 -98.5t-55.5 -110t-92 -105.5t-135 -91l-26 -13l-8 -195zM631 397q44 0 74 31q31 31 31 74t-31 74q-29 30 -73.5 30t-74.5 -30q-31 -31 -31 -74
t31 -74q30 -31 74 -31zM602 531q12 12 29 12t29.5 -12t12.5 -29t-12 -29t-30 -12q-17 0 -29 12t-12 29t12 29zM211 83l54 116l2 4l-57 27l-124 -266l-6 -12l274 127l5 2l-27 58z" />
    <glyph glyph-name="uniE616" unicode="&#xe616;" 
d="M77 633l435 -498l435 498h-870z" />
    <glyph glyph-name="uniE617" unicode="&#xe617;" 
d="M77 819v-870h870v870h-870zM599 56h-174v362h174v-362zM599 538h-174v174h174v-174z" />
    <glyph glyph-name="uniE618" unicode="&#xe618;" 
d="M485 819h-55v-81q-149 -16 -251 -129.5t-102 -265.5q0 -107 52.5 -198t143.5 -143.5t198 -52.5q119 0 216.5 64.5t144.5 169.5l61 -17q54 90 54 202q0 92 -38 176t-101 144t-148 95.5t-175 35.5zM471 3q-92 0 -170.5 45.5t-124 124t-45.5 170.5q0 127 87 224.5t212 115.5
v-365l346 -120q-34 -86 -121 -140.5t-184 -54.5zM854 231l-369 126v408q104 1 197.5 -53t150.5 -146.5t57 -197.5q0 -72 -36 -137z" />
    <glyph glyph-name="uniE619" unicode="&#xe619;" 
d="M947 589q0 37 -26 63l-140 141q-27 26 -64 26t-63 -26l-52 -52l267 -267l52 52q26 26 26 63zM77 -51l330 63l-267 267zM448 53l-267 267l372 373l268 -267z" />
    <glyph glyph-name="uniE61A" unicode="&#xe61a;" 
d="M938 73l-171 170q62 93 62 205q0 101 -49.5 186.5t-135.5 135t-186.5 49.5t-186 -49.5t-135.5 -135t-50 -186.5t50 -186.5t135.5 -135.5t186.5 -50q96 0 181 47l175 -174zM262 448q0 81 57.5 138.5t138.5 57.5t138.5 -57.5t57.5 -138.5t-57.5 -138.5t-138.5 -57.5
t-138.5 57.5t-57.5 138.5z" />
    <glyph glyph-name="uniE61B" unicode="&#xe61b;" 
d="M474 -36q16 -16 39 -15q24 -2 40 15l307 314q15 16 15 38t-16 38q-19 20 -87 20l-73 1l1 444h-374l1 -444l-74 1q-24 0 -35 -0.5t-27.5 -5t-26.5 -14.5q-15 -16 -15 -38t16 -38z" />
    <glyph glyph-name="uniE61C" unicode="&#xe61c;" 
d="M165 488q-16 -16 -16 -38t15 -38q10 -10 26.5 -14.5t27.5 -5t35 -0.5l74 1l-1 -444h374l-1 444l73 1q68 0 87 20q16 16 16 38t-15 38l-307 314q-16 17 -40 15q-23 1 -39 -15z" />
    <glyph glyph-name="uniE61D" unicode="&#xe61d;" 
d="M511.5 529q-59.5 0 -101.5 -42.5t-42 -102.5t42 -102.5t101.5 -42.5t102 42.5t42.5 102.5t-42.5 102.5t-102 42.5zM512 297q-36 0 -61 25.5t-25 61.5t25 61.5t61 25.5t61 -25.5t25 -61.5t-25 -61.5t-61 -25.5zM918 281l-67 40q6 34 6 63t-6 63l67 40q21 12 27 35t-5 44
l-58 101q-12 20 -35 26.5t-44 -5.5l-68 -40q-50 44 -108 64v49q0 24 -17 41t-41 17h-115q-23 0 -40 -17t-17 -41v-49q-58 -21 -108 -64l-68 40q-21 12 -44 5.5t-35 -26.5l-58 -101q-11 -21 -5 -44t26 -35l68 -40q-6 -34 -6 -63t6 -63l-68 -40q-20 -12 -26 -35t5 -44l58 -100
q12 -21 35 -27.5t44 5.5l68 40q50 -43 108 -64v-49q0 -24 17 -41t40 -17h115q24 0 41 17t17 41v49q58 20 108 64l68 -40q21 -12 44 -5.5t35 27.5l58 100q11 21 5 44t-27 35zM875 206l-28 -50q-6 -11 -17.5 -14t-22.5 3l-80 47q-64 -73 -158 -92v-64q0 -12 -8 -20.5t-20 -8.5
h-58q-12 0 -20.5 8.5t-8.5 20.5v64q-93 19 -157 92l-80 -47q-11 -6 -22.5 -3t-17.5 14l-28 50q-6 10 -3 22t13 18l80 46q-15 46 -15 92t15 92l-80 47q-10 6 -13 17.5t3 21.5l28 50q6 11 17.5 14t22.5 -3l80 -47q64 73 157 92v64q0 12 8.5 20.5t20.5 8.5h58q12 0 20 -8.5
t8 -20.5v-64q94 -19 158 -92l80 47q11 6 22.5 3t17.5 -14l28 -50q6 -10 3 -21.5t-13 -17.5l-81 -47q16 -46 16 -91.5t-16 -92.5l81 -46q10 -6 13 -18t-3 -22z" />
    <glyph glyph-name="uniE61E" unicode="&#xe61e;" 
d="M925 653l-144 144q-21 22 -47.5 22t-48.5 -22l-533 -533l-74 -266q-6 -27 7.5 -40t40.5 -8l266 74l533 533q22 22 22 48.5t-22 47.5zM151 23l54 198l144 -144zM397 125q-99 100 -144 144l312 312l144 -144zM757 485l-144 144l96 96q18 19 24.5 19t23.5 -19l96 -96
q18 -18 18.5 -23.5t-18.5 -24.5z" />
    <glyph glyph-name="uniE61F" unicode="&#xe61f;" 
d="M701 374q56 76 56 173q0 113 -72 192.5t-173 79.5t-173 -79.5t-72 -192.5q0 -97 56 -173q-49 -17 -79.5 -58.5t-30.5 -94.5v-109q0 -68 47.5 -115.5t115.5 -47.5h272q68 0 115.5 47.5t47.5 115.5v109q0 53 -30.5 94.5t-79.5 58.5zM322 547q0 90 55.5 154t134.5 64
t134.5 -64t55.5 -154t-55.5 -153.5t-134.5 -63.5t-134.5 63.5t-55.5 153.5zM757 126q0 -51 -39 -87t-95 -36h-222q-56 0 -95 36t-39 87v81q0 43 29 76t74 43q64 -51 142 -51t142 51q45 -10 74 -43t29 -76v-81z" />
    <glyph glyph-name="uniE620" unicode="&#xe620;" 
d="M947 507h-312v312h-246v-312h-312v-246h312v-312h246v312h312v246z" />
    <glyph glyph-name="uniE621" unicode="&#xe621;" 
d="M864 697l-39 39l-313 -313l-313 313l-39 -39l313 -313l-313 -313l39 -39l313 313l313 -313l39 39l-313 313z" />
  </font>
</defs>
</svg>
